<svg t="1576230570974" class="icon" viewBox="0 0 1024 1024" version="1.1" xmlns="http://www.w3.org/2000/svg" p-id="2379" width="200" height="200"><path d="M765.952 505.856V286.72c0-135.168-108.544-245.76-243.712-245.76-135.168 0-243.712 110.592-243.712 245.76v219.136c-34.816 49.152-57.344 110.592-57.344 174.08 0 165.888 135.168 301.056 301.056 301.056s301.056-135.168 301.056-301.056c0-63.488-20.48-124.928-57.344-174.08zM333.824 286.72c0-104.448 83.968-188.416 188.416-188.416s188.416 83.968 188.416 188.416v159.744c-51.2-40.96-116.736-65.536-188.416-65.536-71.68 0-137.216 24.576-188.416 65.536V286.72z m188.416 638.976c-135.168 0-243.712-108.544-243.712-243.712s108.544-243.712 243.712-243.712c135.168 0 243.712 108.544 243.712 243.712s-108.544 243.712-243.712 243.712z m0-319.488c-20.48 0-36.864 16.384-36.864 36.864V737.28c0 20.48 16.384 36.864 36.864 36.864s36.864-16.384 36.864-36.864v-94.208c0-20.48-16.384-36.864-36.864-36.864z" p-id="2380" fill="#1296db"></path></svg>