<svg t="1576163869081" class="icon" viewBox="0 0 5957 1024" version="1.1" xmlns="http://www.w3.org/2000/svg" p-id="1960" width="200" height="200"><path d="M0 0h5957.818182v930.909091c0 51.2-41.890909 93.090909-93.090909 93.090909H93.090909c-51.2 0-93.090909-41.890909-93.090909-93.090909V0z" fill="#4966C5" p-id="1961" data-spm-anchor-id="a313x.7781069.0.i0" class="selected"></path><path d="M6881.28 314.647273C6874.763636 244.829091 6860.8 195.490909 6860.8 195.490909l20.48 119.156364z" fill="#6B88E9" p-id="1962"></path><path d="M5949.44 700.974545c-573.44-136.843636-1545.309091-46.545455-2360.785455 75.403637 425.425455 3.723636 807.098182 25.134545 1103.127273 73.541818 871.330909 139.636364 1168.290909 4.654545 1257.658182-148.945455z" fill="#4966C5" p-id="1963"></path><path d="M5949.44 700.974545c-573.44-136.843636-1545.309091-46.545455-2360.785455 75.403637 425.425455 3.723636 807.098182 25.134545 1103.127273 73.541818 871.330909 139.636364 1168.290909 4.654545 1257.658182-148.945455z" fill="#6B88E9" p-id="1964"></path><path d="M5978.298182 520.378182c-4.654545-32.581818-13.963636-59.578182-20.48-76.334546v9.309091l20.48 67.025455z" fill="#6B88E9" p-id="1965"></path><path d="M5957.818182 684.218182l-8.378182 16.756363c2.792727 0.930909 5.585455 1.861818 8.378182 1.861819v-18.618182z" fill="#4966C5" p-id="1966"></path><path d="M5957.818182 684.218182l-8.378182 16.756363c2.792727 0.930909 5.585455 1.861818 8.378182 1.861819v-18.618182z" fill="#6B88E9" p-id="1967"></path><path d="M5957.818182 453.352727v-9.309091c-5.585455-13.032727-9.309091-21.410909-9.309091-21.410909l9.309091 30.72z" fill="#4966C5" p-id="1968"></path><path d="M5957.818182 453.352727v-9.309091c-5.585455-13.032727-9.309091-21.410909-9.309091-21.410909l9.309091 30.72z" fill="#6B88E9" p-id="1969"></path><path d="M93.090909 1024h2136.436364c187.112727-40.96 726.109091-153.6 1358.196363-247.621818-1135.709091-10.24-2587.927273 107.054545-3573.76 203.869091 16.756364 26.065455 45.614545 43.752727 79.127273 43.752727z" fill="#4966C5" p-id="1970"></path><path d="M93.090909 1024h2136.436364c187.112727-40.96 726.109091-153.6 1358.196363-247.621818-1135.709091-10.24-2587.927273 107.054545-3573.76 203.869091 16.756364 26.065455 45.614545 43.752727 79.127273 43.752727z" fill="#6B88E9" p-id="1971"></path><path d="M5957.818182 930.909091V702.836364c-2.792727-0.930909-5.585455-1.861818-8.378182-1.861819-88.436364 153.6-386.327273 288.581818-1257.658182 148.945455-296.029091-47.476364-677.701818-69.818182-1103.127273-73.541818-633.018182 94.021818-1171.083636 207.592727-1358.196363 247.621818H5864.727273c51.2 0 93.090909-41.890909 93.090909-93.090909z" fill="#4966C5" p-id="1972"></path><path d="M5957.818182 930.909091V702.836364c-2.792727-0.930909-5.585455-1.861818-8.378182-1.861819-88.436364 153.6-386.327273 288.581818-1257.658182 148.945455-296.029091-47.476364-677.701818-69.818182-1103.127273-73.541818-633.018182 94.021818-1171.083636 207.592727-1358.196363 247.621818H5864.727273c51.2 0 93.090909-41.890909 93.090909-93.090909z" fill="#6B88E9" p-id="1973"></path><path d="M5957.818182 930.909091V702.836364c-2.792727-0.930909-5.585455-1.861818-8.378182-1.861819-88.436364 153.6-386.327273 288.581818-1257.658182 148.945455-296.029091-47.476364-677.701818-69.818182-1103.127273-73.541818-633.018182 94.021818-1171.083636 207.592727-1358.196363 247.621818H5864.727273c51.2 0 93.090909-41.890909 93.090909-93.090909z" fill="#6B88E9" p-id="1974"></path></svg>