<svg t="1576458748778" class="icon" viewBox="0 0 1024 1024" version="1.1" xmlns="http://www.w3.org/2000/svg" p-id="6038" width="200" height="200"><path d="M56.888889 682.666667c-28.899556 0-56.888889-26.965333-56.888889-56.888889 0-29.980444 27.989333-56.888889 56.888889-56.888889h568.888889c28.842667 0 56.888889 26.908444 56.888889 56.888889 0 29.923556-28.046222 56.888889-56.888889 56.888889H56.888889z m0-227.555556c-28.899556 0-56.888889-22.357333-56.888889-52.337778C0 372.906667 27.989333 341.333333 56.888889 341.333333h568.888889c28.842667 0 56.888889 26.965333 56.888889 56.888889 0 29.980444-28.046222 56.888889-56.888889 56.888889H56.888889z m0-227.555555c-30.776889 0-56.888889-26.965333-56.888889-56.888889 0-29.980444 26.112-56.888889 56.888889-56.888889h910.222222c30.72 0 56.888889 26.908444 56.888889 56.888889 0 29.923556-26.168889 56.888889-56.888889 56.888889H56.888889z m682.666667 113.777777l284.444444 170.666667-284.444444 170.666667V341.333333z m227.555555 455.111111c30.72 0 56.888889 26.965333 56.888889 56.888889 0 29.980444-26.168889 56.888889-56.888889 56.888889H56.888889c-30.776889 0-56.888889-26.908444-56.888889-56.888889 0-29.923556 26.112-56.888889 56.888889-56.888889h910.222222z" p-id="6039" fill="#13227a"></path></svg>