<svg t="1576458770334" class="icon" viewBox="0 0 1024 1024" version="1.1" xmlns="http://www.w3.org/2000/svg" p-id="6213" width="200" height="200"><path d="M112.64 355.84h510.464c24.576 0 45.056 21.504 45.056 48.128s-19.968 48.128-45.056 48.128H112.64c-24.576 0-45.056-21.504-45.056-48.128s20.48-48.128 45.056-48.128z m0 224.256h510.464c24.576 0 45.056 21.504 45.056 48.128s-19.968 48.128-45.056 48.128H112.64c-24.576 0-45.056-21.504-45.056-48.128s20.48-48.128 45.056-48.128z m3.584 216.064h783.872c26.624 0 48.128 21.504 48.128 48.128s-21.504 48.128-48.128 48.128h-783.872c-26.624 0-48.128-21.504-48.128-48.128s21.504-48.128 48.128-48.128zM948.224 675.84l-224.256-160.256 224.256-160.256V675.84z m-48.128-439.808h-783.872c-26.624 0-48.128-21.504-48.128-48.128s21.504-48.128 48.128-48.128h783.872c26.624 0 48.128 21.504 48.128 48.128s-22.016 48.128-48.128 48.128z" fill="#13227a" p-id="6214"></path></svg>