<svg t="1576230683176" class="icon" viewBox="0 0 1024 1024" version="1.1" xmlns="http://www.w3.org/2000/svg" p-id="3208" width="200" height="200"><path d="M306.424 301.384V219.584a22.432 22.432 0 0 1 22.36-22.36h415.872a22.432 22.432 0 0 1 22.36 22.36v81.808h41.712v-101.44c0-24.592-20.128-44.72-44.728-44.72H309.44c-24.6 0-44.72 20.128-44.72 44.72v101.44h41.704zM767.016 629.36v89.08a22.432 22.432 0 0 1-22.36 22.36H328.784a22.432 22.432 0 0 1-22.36-22.36V629.36H264.72v108.72c0 24.592 20.128 44.72 44.72 44.72H764c24.6 0 44.728-20.128 44.728-44.72V629.36h-41.712z" fill="#FF9000" p-id="3209"></path><path d="M361.896 578.216h-42.4V418.384c-15.496 14.472-33.752 25.184-54.776 32.144v-38.488c11.064-3.616 23.08-10.496 36.064-20.6 12.984-10.112 21.88-21.904 26.712-35.384h34.4v222.16zM598.6 538.816v39.408H449.944c1.624-14.904 6.448-29.016 14.496-42.328 8.04-13.376 23.936-31.032 47.68-53.072 19.128-17.8 30.824-29.88 35.168-36.216 5.832-8.744 8.752-17.4 8.752-25.96 0-9.44-2.544-16.72-7.624-21.8-5.096-5.072-12.072-7.616-21.04-7.616-8.848 0-15.904 2.664-21.136 7.984-5.232 5.336-8.256 14.192-9.056 26.568l-42.256-4.216c2.52-23.336 10.416-40.096 23.688-50.248 13.28-10.176 29.88-15.248 49.808-15.248 21.832 0 38.976 5.872 51.472 17.656 12.472 11.768 18.712 26.408 18.712 43.912a76.48 76.48 0 0 1-5.368 28.44c-3.584 9.008-9.224 18.448-16.984 28.304-5.128 6.536-14.384 15.936-27.76 28.232-13.368 12.248-21.84 20.432-25.416 24.432a73.36 73.36 0 0 0-8.68 11.784h84.2zM661.744 519.504l41.048-4.984c1.312 10.464 4.832 18.464 10.544 23.984 5.752 5.528 12.696 8.296 20.84 8.296 8.752 0 16.12-3.328 22.096-9.936 6-6.656 8.992-15.608 8.992-26.872 0-10.672-2.872-19.112-8.6-25.344-5.736-6.256-12.728-9.376-20.976-9.376-5.432 0-11.912 1.048-19.472 3.168l4.68-34.552c11.472 0.296 20.208-2.192 26.256-7.472 6.024-5.28 9.048-12.288 9.048-21.056 0-7.432-2.208-13.384-6.616-17.808-4.456-4.424-10.344-6.632-17.672-6.632-7.24 0-13.44 2.504-18.576 7.544-5.112 5.016-8.224 12.368-9.344 22.024l-39.08-6.632c2.712-13.368 6.824-24.08 12.296-32.088 5.496-7.984 13.128-14.272 22.944-18.848 9.808-4.576 20.792-6.864 32.968-6.864 20.824 0 37.512 6.64 50.104 19.928 10.344 10.856 15.536 23.136 15.536 36.808 0 19.424-10.616 34.912-31.84 46.48 12.672 2.72 22.816 8.816 30.416 18.272 7.592 9.456 11.392 20.864 11.392 34.232 0 19.432-7.096 35.984-21.28 49.656-14.184 13.688-31.84 20.528-52.968 20.528-20.024 0-36.608-5.768-49.8-17.264-13.176-11.528-20.824-26.6-22.936-45.192z" fill="#FF9000" p-id="3210"></path></svg>