<svg t="1576141329499" class="icon" viewBox="0 0 1024 1024" version="1.1" xmlns="http://www.w3.org/2000/svg" p-id="2093" width="200" height="200"><path d="M958.924 830.405c-0.003-136.025-78.11-252.291-188.563-299.708 53.495-38.552 88.75-104.233 88.75-178.822 0-101.833-65.684-187.06-153.85-209.222-0.817-0.214-1.584-0.1-2.33 0.21-1.004-0.1-1.975-0.332-2.997-0.332-18.835 0-34.105 16.474-34.105 36.788 0 18.349 12.493 33.428 28.782 36.203 2.9 1.275 6.702 2.246 6.852 2.303 51.056 18.689 87.8 70.751 87.8 132.137 0 68.447-45.71 125.327-106 137.232-0.085 0.007-0.157 0.175-0.242 0.221-20.056 1.367-35.984 19.167-35.984 41.137 0 22.302 16.396 40.365 36.88 41.247 0.144 0.075 0.269 0.315 0.415 0.326 121.25 13.32 207.197 124.712 207.197 260.287 0 20.067 15.09 36.338 33.7 36.338 18.156 0 32.853-15.525 33.56-34.92 0.024-0.19 0.136-0.34 0.136-0.529 0-0.067-0.022-0.136-0.022-0.218 0.01-0.225 0.022-0.443 0.022-0.664v-0.014h-0.001zM555.112 536.728c63.882-46.16 105.96-124.649 105.96-213.806 0-142.067-106.789-257.243-238.53-257.243-131.733 0-238.529 115.176-238.529 257.243 0 89.164 42.087 167.646 105.957 213.806C157.92 593.561 64.555 732.642 64.555 895.33c0 9.162 0.482 18.178 1.132 27.15h0.06c0 19.804 14.882 35.842 33.247 35.842 18.353 0 33.239-16.04 33.239-35.841 0-1.115-0.211-2.168-0.307-3.26-0.64-7.895-1.19-15.8-1.19-23.892 0-173.802 130.641-314.687 291.804-314.687 161.165 0 291.81 140.885 291.81 314.687 0 8.387-0.55 16.636-1.236 24.816-0.003 0.428-0.114 0.814-0.114 1.242 0 0.136 0.039 0.257 0.039 0.382-0.022 0.235-0.015 0.482-0.04 0.71h0.111c0.55 19.274 15.129 34.756 33.132 34.756 18.01 0 32.59-15.474 33.139-34.756h0.071c0.626-8.974 1.072-18 1.072-27.136 0.006-162.7-93.354-301.781-225.412-358.614z m-132.57-29.025c-94.628 0-171.338-82.73-171.338-184.781 0-102.047 76.71-184.779 171.339-184.779s171.338 82.73 171.338 184.779c0 102.05-76.71 184.781-171.338 184.781z m0 0" fill="#1998DF" p-id="2094"></path></svg>